<svg width="165" height="57" viewBox="0 0 165 57" fill="none" xmlns="http://www.w3.org/2000/svg">
<path d="M102.936 42.39C102.936 41.3438 104.313 40.53 105.887 40.6459L153.27 44.136C159.289 44.5794 164.381 41.226 163.73 37.2483C163.052 33.1161 156.574 30.5622 150.747 32.1306L106.595 44.0151C104.848 44.4854 102.936 43.6363 102.936 42.39Z" fill="url(#paint0_linear_1_2)"/>
<path d="M7 43.3262V14H20.125C26.1133 14 29.1074 16.7549 29.1074 22.2646C29.1074 28.2393 25.0127 31.8555 16.8232 33.1133L16.0439 28.2734C20.9658 27.3848 23.4268 25.4365 23.4268 22.4287C23.4268 19.9951 22.21 18.7783 19.7764 18.7783H12.4346V43.3262H7Z" fill="#FFFBFB"/>
<path d="M32.2041 43.3262V21.793H36.4082L37.085 24.541C38.9717 22.709 40.9678 21.793 43.0732 21.793V26.1816C41.0498 26.1816 39.2383 27.0225 37.6387 28.7041V43.3262H32.2041Z" fill="#FFFBFB"/>
<path d="M51.584 14V18.3066H46.1494V14H51.584ZM51.584 21.793V43.3262H46.1494V21.793H51.584Z" fill="#FFFBFB"/>
<path d="M54.168 21.793H59.9307L65.3652 37.2969L70.6768 21.793H76.3369L67.3955 43.9619C65.8096 47.8721 63.2734 50.6543 59.7871 52.3086L57.1621 48.5967C59.5684 47.5439 61.3184 45.8281 62.4121 43.4492L54.168 21.793Z" fill="#FFFBFB"/>
<path d="M77.8955 36.6201C77.8955 32.3408 81.0127 30.2012 87.2471 30.2012C88.71 30.2012 90.1729 30.3379 91.6357 30.6113V28.9912C91.6357 27.0635 90.248 26.0996 87.4727 26.0996C85.1211 26.0996 82.5098 26.4414 79.6387 27.125V22.8184C82.5098 22.1348 85.1211 21.793 87.4727 21.793C93.8711 21.793 97.0703 24.1582 97.0703 28.8887V43.3262H93.9121L91.9844 41.3984C90.1113 42.6836 88.0469 43.3262 85.791 43.3262C80.5273 43.3262 77.8955 41.0908 77.8955 36.6201ZM91.6357 34.3027C90.2686 34.0293 88.8057 33.8926 87.2471 33.8926C84.6357 33.8926 83.3301 34.7812 83.3301 36.5586C83.3301 38.4727 84.4238 39.4297 86.6113 39.4297C88.416 39.4297 90.0908 38.8691 91.6357 37.748V34.3027Z" fill="#FFFBFB"/>
<path d="M102.218 43.3262V21.793H106.422L107.058 24.9102C108.985 22.832 111.303 21.793 114.01 21.793C116.717 21.793 118.569 22.7773 119.567 24.7461C121.769 22.7773 124.072 21.793 126.479 21.793C131.428 21.793 133.902 24.5205 133.902 29.9756V43.3262H128.468V29.7705C128.468 27.3779 127.388 26.1816 125.228 26.1816C123.614 26.1816 122.062 26.9062 120.572 28.3555V43.3262H115.138V29.832C115.138 27.3984 114.14 26.1816 112.144 26.1816C110.558 26.1816 109.061 26.9062 107.652 28.3555V43.3262H102.218Z" fill="#FFFBFB"/>
<defs>
<linearGradient id="paint0_linear_1_2" x1="331.665" y1="39.9983" x2="320.159" y2="94.2605" gradientUnits="userSpaceOnUse">
<stop stop-color="#DF8908"/>
<stop offset="1" stop-color="#B415FF"/>
</linearGradient>
</defs>
</svg>
