<svg width="71" height="51" viewBox="0 0 71 51" fill="none" xmlns="http://www.w3.org/2000/svg">
<rect x="2.09337" width="31.8007" height="31.8007" transform="matrix(0.69779 -0.716302 0.69779 0.716302 22.8607 27.3669)" stroke="url(#paint0_linear_1_218)" stroke-width="3"/>
<rect width="34.8007" height="34.8007" transform="matrix(0.69779 -0.716302 0.69779 0.716302 11.9254 25.8674)" fill="url(#paint1_linear_1_218)"/>
<rect x="2.09337" width="31.8007" height="31.8007" transform="matrix(0.69779 -0.716302 0.69779 0.716302 1.42793 27.2226)" stroke="url(#paint2_linear_1_218)" stroke-width="3"/>
<path d="M18.3438 37V14.6562H28.3438C32.9062 14.6562 35.1875 16.7552 35.1875 20.9531C35.1875 25.5052 32.0677 28.2604 25.8281 29.2188L25.2344 25.5312C28.9844 24.8542 30.8594 23.3698 30.8594 21.0781C30.8594 19.224 29.9323 18.2969 28.0781 18.2969H22.4844V37H18.3438Z" fill="#0D1117"/>
<path d="M37.9531 36.0625V32.3125C40.1927 33.1458 42.724 33.5625 45.5469 33.5625C48.974 33.5625 50.6875 32.4167 50.6875 30.125C50.6875 28.4583 49.6354 27.625 47.5312 27.625H44.0312C39.4583 27.625 37.1719 25.5417 37.1719 21.375C37.1719 16.7917 40.4271 14.5 46.9375 14.5C49.4375 14.5 51.8073 14.8646 54.0469 15.5938V19.3438C51.8073 18.5104 49.4375 18.0938 46.9375 18.0938C43.1875 18.0938 41.3125 19.1875 41.3125 21.375C41.3125 23.0417 42.2188 23.875 44.0312 23.875H47.5312C52.3958 23.875 54.8281 25.9583 54.8281 30.125C54.8281 34.8125 51.7344 37.1562 45.5469 37.1562C42.724 37.1562 40.1927 36.7917 37.9531 36.0625Z" fill="#0D1117"/>
<defs>
<linearGradient id="paint0_linear_1_218" x1="34.8007" y1="17.4004" x2="0" y2="17.4004" gradientUnits="userSpaceOnUse">
<stop stop-color="#DF8908"/>
<stop offset="0.82" stop-color="#6C0D99"/>
</linearGradient>
<linearGradient id="paint1_linear_1_218" x1="34.8007" y1="17.4004" x2="0" y2="17.4004" gradientUnits="userSpaceOnUse">
<stop stop-color="#DF8908"/>
<stop offset="1" stop-color="#B415FF"/>
</linearGradient>
<linearGradient id="paint2_linear_1_218" x1="34.8007" y1="17.4004" x2="0" y2="17.4004" gradientUnits="userSpaceOnUse">
<stop stop-color="#DF8908"/>
<stop offset="0.82" stop-color="#6C0D99"/>
</linearGradient>
</defs>
</svg>
