<svg width="37" height="23" viewBox="0 0 37 23" fill="none" xmlns="http://www.w3.org/2000/svg">
<path d="M0 22.5V0.15625H10C14.5624 0.15625 16.8438 2.25521 16.8438 6.45312C16.8438 11.0052 13.724 13.7604 7.48437 14.7188L6.89063 11.0312C10.6406 10.3542 12.5156 8.86979 12.5156 6.57812C12.5156 4.72396 11.5886 3.79688 9.73435 3.79688H4.14063V22.5H0Z" fill="url(#paint0_linear_4002_3)"/>
<path d="M19.2032 21.5625V17.8125C21.4428 18.6458 23.974 19.0625 26.7969 19.0625C30.224 19.0625 31.9375 17.9167 31.9375 15.625C31.9375 13.9583 30.8855 13.125 28.7813 13.125H25.2813C20.7084 13.125 18.4219 11.0417 18.4219 6.875C18.4219 2.29167 21.6771 0 28.1875 0C30.6875 0 33.0573 0.364583 35.2969 1.09375V4.84375C33.0573 4.01042 30.6875 3.59375 28.1875 3.59375C24.4375 3.59375 22.5625 4.6875 22.5625 6.875C22.5625 8.54167 23.4688 9.375 25.2813 9.375H28.7813C33.6459 9.375 36.0782 11.4583 36.0782 15.625C36.0782 20.3125 32.9844 22.6562 26.7969 22.6562C23.974 22.6562 21.4428 22.2917 19.2032 21.5625Z" fill="url(#paint1_linear_4002_3)"/>
<defs>
<linearGradient id="paint0_linear_4002_3" x1="16.8438" y1="18.4076" x2="1.57931e-06" y2="4.24867" gradientUnits="userSpaceOnUse">
<stop stop-color="#475569"/>
<stop offset="1" stop-color="#64748B"/>
</linearGradient>
<linearGradient id="paint1_linear_4002_3" x1="36.0782" y1="18.7006" x2="18.4219" y2="3.95562" gradientUnits="userSpaceOnUse">
<stop stop-color="#475569"/>
<stop offset="1" stop-color="#64748B"/>
</linearGradient>
</defs>
</svg>
