<svg width="75" height="75" viewBox="0 0 75 75" fill="none" xmlns="http://www.w3.org/2000/svg">
<circle cx="37.5" cy="37.5" r="37.5" fill="#0F172A"/>
<path d="M20 49.5V27.1562H30C34.5624 27.1562 36.8438 29.2552 36.8438 33.4531C36.8438 38.0052 33.724 40.7604 27.4844 41.7188L26.8906 38.0312C30.6406 37.3542 32.5156 35.8698 32.5156 33.5781C32.5156 31.724 31.5886 30.7969 29.7344 30.7969H24.1406V49.5H20Z" fill="url(#paint0_linear_4002_5)"/>
<path d="M39.2032 48.5625V44.8125C41.4428 45.6458 43.974 46.0625 46.7969 46.0625C50.224 46.0625 51.9375 44.9167 51.9375 42.625C51.9375 40.9583 50.8855 40.125 48.7813 40.125H45.2813C40.7084 40.125 38.4219 38.0417 38.4219 33.875C38.4219 29.2917 41.6771 27 48.1875 27C50.6875 27 53.0573 27.3646 55.2969 28.0938V31.8438C53.0573 31.0104 50.6875 30.5938 48.1875 30.5938C44.4375 30.5938 42.5625 31.6875 42.5625 33.875C42.5625 35.5417 43.4688 36.375 45.2813 36.375H48.7813C53.6459 36.375 56.0782 38.4583 56.0782 42.625C56.0782 47.3125 52.9844 49.6562 46.7969 49.6562C43.974 49.6562 41.4428 49.2917 39.2032 48.5625Z" fill="url(#paint1_linear_4002_5)"/>
<defs>
<linearGradient id="paint0_linear_4002_5" x1="36.8438" y1="45.4076" x2="20" y2="31.2487" gradientUnits="userSpaceOnUse">
<stop stop-color="#475569"/>
<stop offset="1" stop-color="#64748B"/>
</linearGradient>
<linearGradient id="paint1_linear_4002_5" x1="56.0782" y1="45.7006" x2="38.4219" y2="30.9556" gradientUnits="userSpaceOnUse">
<stop stop-color="#475569"/>
<stop offset="1" stop-color="#64748B"/>
</linearGradient>
</defs>
</svg>
