<svg width="52" height="24" viewBox="0 0 52 24" fill="none" xmlns="http://www.w3.org/2000/svg">
<path d="M14 22.2875C14 21.2841 14.8599 20.5036 15.8427 20.6148L45.4327 23.9621C49.1913 24.3874 52.3714 21.1711 51.9649 17.3561C51.5414 13.3929 47.4964 10.9435 43.8573 12.4477L16.2849 23.8462C15.1938 24.2972 14 23.4829 14 22.2875Z" fill="url(#paint0_linear_11_16)"/>
<path d="M0.34375 23V0.65625H10.3438C14.9062 0.65625 17.1875 2.75521 17.1875 6.95312C17.1875 11.5052 14.0677 14.2604 7.82812 15.2188L7.23438 11.5312C10.9844 10.8542 12.8594 9.36979 12.8594 7.07812C12.8594 5.22396 11.9323 4.29688 10.0781 4.29688H4.48438V23H0.34375Z" fill="black"/>
<path d="M19.5469 22.0625V18.3125C21.7865 19.1458 24.3177 19.5625 27.1406 19.5625C30.5677 19.5625 32.2812 18.4167 32.2812 16.125C32.2812 14.4583 31.2292 13.625 29.125 13.625H25.625C21.0521 13.625 18.7656 11.5417 18.7656 7.375C18.7656 2.79167 22.0208 0.5 28.5312 0.5C31.0312 0.5 33.401 0.864583 35.6406 1.59375V5.34375C33.401 4.51042 31.0312 4.09375 28.5312 4.09375C24.7812 4.09375 22.9062 5.1875 22.9062 7.375C22.9062 9.04167 23.8125 9.875 25.625 9.875H29.125C33.9896 9.875 36.4219 11.9583 36.4219 16.125C36.4219 20.8125 33.3281 23.1562 27.1406 23.1562C24.3177 23.1562 21.7865 22.7917 19.5469 22.0625Z" fill="black"/>
<defs>
<linearGradient id="paint0_linear_11_16" x1="194.513" y1="16.1542" x2="153.561" y2="103.441" gradientUnits="userSpaceOnUse">
<stop stop-color="#DF8908"/>
<stop offset="1" stop-color="#B415FF"/>
</linearGradient>
</defs>
</svg>
