<svg width="103" height="72" viewBox="0 0 103 72" fill="none" xmlns="http://www.w3.org/2000/svg">
<rect x="34.1213" y="36.3553" width="47" height="47" transform="rotate(-45 34.1213 36.3553)" stroke="url(#paint0_linear_1_218)" stroke-width="3"/>
<rect x="17" y="36.3553" width="50" height="50" transform="rotate(-45 17 36.3553)" fill="url(#paint1_linear_1_218)"/>
<rect x="2.91661" y="36.1506" width="47" height="47" transform="rotate(-45 2.91661 36.1506)" stroke="url(#paint2_linear_1_218)" stroke-width="3"/>
<path d="M29.2959 52V20.5791H43.3584C49.7744 20.5791 52.9824 23.5308 52.9824 29.4341C52.9824 35.8354 48.5952 39.71 39.8208 41.0576L38.9858 35.8721C44.2593 34.9199 46.896 32.8325 46.896 29.6099C46.896 27.0024 45.5923 25.6987 42.9849 25.6987H35.1187V52H29.2959ZM56.3003 50.6816V45.4082C59.4497 46.5801 63.0093 47.166 66.979 47.166C71.7983 47.166 74.208 45.5547 74.208 42.332C74.208 39.9883 72.7285 38.8164 69.7695 38.8164H64.8477C58.417 38.8164 55.2017 35.8867 55.2017 30.0273C55.2017 23.582 59.7793 20.3594 68.9346 20.3594C72.4502 20.3594 75.7827 20.8721 78.9321 21.8975V27.1709C75.7827 25.999 72.4502 25.4131 68.9346 25.4131C63.6611 25.4131 61.0244 26.9512 61.0244 30.0273C61.0244 32.3711 62.2988 33.543 64.8477 33.543H69.7695C76.6104 33.543 80.0308 36.4727 80.0308 42.332C80.0308 48.9238 75.6802 52.2197 66.979 52.2197C63.0093 52.2197 59.4497 51.707 56.3003 50.6816Z" fill="#0D1117"/>
<defs>
<linearGradient id="paint0_linear_1_218" x1="82" y1="61.3553" x2="32" y2="61.3553" gradientUnits="userSpaceOnUse">
<stop stop-color="#DF8908"/>
<stop offset="0.82" stop-color="#6C0D99"/>
</linearGradient>
<linearGradient id="paint1_linear_1_218" x1="67" y1="61.3553" x2="17" y2="61.3553" gradientUnits="userSpaceOnUse">
<stop stop-color="#DF8908"/>
<stop offset="1" stop-color="#B415FF"/>
</linearGradient>
<linearGradient id="paint2_linear_1_218" x1="50.7953" y1="61.1506" x2="0.795288" y2="61.1506" gradientUnits="userSpaceOnUse">
<stop stop-color="#DF8908"/>
<stop offset="0.82" stop-color="#6C0D99"/>
</linearGradient>
</defs>
</svg>
