<svg width="103" height="72" viewBox="0 0 103 72" fill="none" xmlns="http://www.w3.org/2000/svg">
<rect x="34.1213" y="36.3553" width="47" height="47" transform="rotate(-45 34.1213 36.3553)" stroke="url(#paint0_linear_1_218)" stroke-width="3"/>
<rect x="17" y="36.3553" width="50" height="50" transform="rotate(-45 17 36.3553)" fill="url(#paint1_linear_1_218)"/>
<rect x="2.91661" y="36.1506" width="47" height="47" transform="rotate(-45 2.91661 36.1506)" stroke="url(#paint2_linear_1_218)" stroke-width="3"/>
<path d="M28.7354 52V20.5791H41.4795C47.8955 20.5791 51.1035 23.3843 51.1035 28.9946C51.1035 35.103 46.7163 38.8311 37.9419 40.1787L37.1069 36.751C43.5522 35.7988 46.7749 33.272 46.7749 29.1704C46.7749 25.6841 44.8853 23.9409 41.106 23.9409H32.8003V52H28.7354Z" fill="white"/>
<path d="M56.0693 50.9014V47.166C59.3652 48.3379 62.9248 48.9238 66.748 48.9238C72.1533 48.9238 74.856 46.9463 74.856 42.9912C74.856 39.6221 72.8638 37.9375 68.8794 37.9375H64.8364C58.2593 37.9375 54.9707 35.0811 54.9707 29.3682C54.9707 23.3623 59.1821 20.3594 67.605 20.3594C71.2671 20.3594 74.6729 20.7988 77.8223 21.6777V25.4131C74.6729 24.2412 71.2671 23.6553 67.605 23.6553C61.8921 23.6553 59.0356 25.5596 59.0356 29.3682C59.0356 32.7373 60.9692 34.4219 64.8364 34.4219H68.8794C75.5737 34.4219 78.9209 37.2783 78.9209 42.9912C78.9209 49.1436 74.8633 52.2197 66.748 52.2197C62.9248 52.2197 59.3652 51.7803 56.0693 50.9014Z" fill="white"/>
<defs>
<linearGradient id="paint0_linear_1_218" x1="82" y1="61.3553" x2="32" y2="61.3553" gradientUnits="userSpaceOnUse">
<stop stop-color="#DF8908"/>
<stop offset="0.82" stop-color="#6C0D99"/>
</linearGradient>
<linearGradient id="paint1_linear_1_218" x1="67" y1="61.3553" x2="17" y2="61.3553" gradientUnits="userSpaceOnUse">
<stop stop-color="#DF8908"/>
<stop offset="1" stop-color="#B415FF"/>
</linearGradient>
<linearGradient id="paint2_linear_1_218" x1="50.7953" y1="61.1506" x2="0.795288" y2="61.1506" gradientUnits="userSpaceOnUse">
<stop stop-color="#DF8908"/>
<stop offset="0.82" stop-color="#6C0D99"/>
</linearGradient>
</defs>
</svg>
