<svg width="56" height="41" viewBox="0 0 56 41" fill="none" xmlns="http://www.w3.org/2000/svg">
<rect x="1.96882" width="23.4303" height="23.4303" transform="matrix(0.656272 -0.754524 0.656272 0.754524 21.7812 22.3385)" stroke="url(#paint0_linear_1_218)" stroke-width="3"/>
<path d="M10.6546 20.853L28 0.910761L45.3454 20.853L28 40.7953L10.6546 20.853Z" fill="url(#paint1_linear_1_218)"/>
<rect x="1.96882" width="23.4303" height="23.4303" transform="matrix(0.656272 -0.754524 0.656272 0.754524 1.47203 22.2231)" stroke="url(#paint2_linear_1_218)" stroke-width="3"/>
<path d="M15.7578 29V12.2422H23.2578C26.6797 12.2422 28.3906 13.8164 28.3906 16.9648C28.3906 20.3789 26.0508 22.4453 21.3711 23.1641L20.9258 20.3984C23.7383 19.8906 25.1445 18.7773 25.1445 17.0586C25.1445 15.668 24.4492 14.9727 23.0586 14.9727H18.8633V29H15.7578Z" fill="#0D1117"/>
<path d="M29.4648 28.2969V25.4844C31.1445 26.1094 33.043 26.4219 35.1602 26.4219C37.7305 26.4219 39.0156 25.5625 39.0156 23.8438C39.0156 22.5938 38.2266 21.9688 36.6484 21.9688H34.0234C30.5938 21.9688 28.8789 20.4062 28.8789 17.2812C28.8789 13.8438 31.3203 12.125 36.2031 12.125C38.0781 12.125 39.8555 12.3984 41.5352 12.9453V15.7578C39.8555 15.1328 38.0781 14.8203 36.2031 14.8203C33.3906 14.8203 31.9844 15.6406 31.9844 17.2812C31.9844 18.5312 32.6641 19.1562 34.0234 19.1562H36.6484C40.2969 19.1562 42.1211 20.7188 42.1211 23.8438C42.1211 27.3594 39.8008 29.1172 35.1602 29.1172C33.043 29.1172 31.1445 28.8438 29.4648 28.2969Z" fill="#0D1117"/>
<defs>
<linearGradient id="paint0_linear_1_218" x1="26.4303" y1="13.2151" x2="0" y2="13.2151" gradientUnits="userSpaceOnUse">
<stop stop-color="#DF8908"/>
<stop offset="0.82" stop-color="#6C0D99"/>
</linearGradient>
<linearGradient id="paint1_linear_1_218" x1="34.7635" y1="10.8819" x2="15.0138" y2="28.0599" gradientUnits="userSpaceOnUse">
<stop stop-color="#DF8908"/>
<stop offset="1" stop-color="#B415FF"/>
</linearGradient>
<linearGradient id="paint2_linear_1_218" x1="26.4303" y1="13.2151" x2="0" y2="13.2151" gradientUnits="userSpaceOnUse">
<stop stop-color="#DF8908"/>
<stop offset="0.82" stop-color="#6C0D99"/>
</linearGradient>
</defs>
</svg>
