<svg width="214" height="100" viewBox="0 0 214 100" fill="none" xmlns="http://www.w3.org/2000/svg">
<path d="M160 91.3332L9.6584 50L160 8.66678V91.3332Z" stroke="url(#paint0_linear_1_211)" stroke-width="3"/>
<circle cx="40" cy="50" r="40" transform="rotate(-90 40 50)" fill="url(#paint1_linear_1_211)"/>
<path d="M17 65.3262V36H30.125C36.1133 36 39.1074 38.7549 39.1074 44.2646C39.1074 50.2393 35.0127 53.8555 26.8232 55.1133L26.0439 50.2734C30.9658 49.3848 33.4268 47.4365 33.4268 44.4287C33.4268 41.9951 32.21 40.7783 29.7764 40.7783H22.4346V65.3262H17Z" fill="#FFFBFB"/>
<path d="M42.2041 65.3262V43.793H46.4082L47.085 46.541C48.9717 44.709 50.9678 43.793 53.0732 43.793V48.1816C51.0498 48.1816 49.2383 49.0225 47.6387 50.7041V65.3262H42.2041Z" fill="#FFFBFB"/>
<path d="M61.584 36V40.3066H56.1494V36H61.584ZM61.584 43.793V65.3262H56.1494V43.793H61.584Z" fill="#FFFBFB"/>
<path d="M64.168 43.793H69.9307L75.3652 59.2969L80.6768 43.793H86.3369L77.3955 65.9619C75.8096 69.8721 73.2734 72.6543 69.7871 74.3086L67.1621 70.5967C69.5684 69.5439 71.3184 67.8281 72.4121 65.4492L64.168 43.793Z" fill="#FFFBFB"/>
<path d="M87.8955 58.6201C87.8955 54.3408 91.0127 52.2012 97.2471 52.2012C98.71 52.2012 100.173 52.3379 101.636 52.6113V50.9912C101.636 49.0635 100.248 48.0996 97.4727 48.0996C95.1211 48.0996 92.5098 48.4414 89.6387 49.125V44.8184C92.5098 44.1348 95.1211 43.793 97.4727 43.793C103.871 43.793 107.07 46.1582 107.07 50.8887V65.3262H103.912L101.984 63.3984C100.111 64.6836 98.0469 65.3262 95.791 65.3262C90.5273 65.3262 87.8955 63.0908 87.8955 58.6201ZM101.636 56.3027C100.269 56.0293 98.8057 55.8926 97.2471 55.8926C94.6357 55.8926 93.3301 56.7812 93.3301 58.5586C93.3301 60.4727 94.4238 61.4297 96.6113 61.4297C98.416 61.4297 100.091 60.8691 101.636 59.748V56.3027Z" fill="#FFFBFB"/>
<path d="M112.218 65.3262V43.793H116.422L117.058 46.9102C118.985 44.832 121.303 43.793 124.01 43.793C126.717 43.793 128.569 44.7773 129.567 46.7461C131.769 44.7773 134.072 43.793 136.479 43.793C141.428 43.793 143.902 46.5205 143.902 51.9756V65.3262H138.468V51.7705C138.468 49.3779 137.388 48.1816 135.228 48.1816C133.614 48.1816 132.062 48.9062 130.572 50.3555V65.3262H125.138V51.832C125.138 49.3984 124.14 48.1816 122.144 48.1816C120.558 48.1816 119.061 48.9062 117.652 50.3555V65.3262H112.218Z" fill="#FFFBFB"/>
<defs>
<linearGradient id="paint0_linear_1_211" x1="4" y1="50" x2="214" y2="50" gradientUnits="userSpaceOnUse">
<stop stop-color="#DF8908"/>
<stop offset="1" stop-color="#B415FF"/>
</linearGradient>
<linearGradient id="paint1_linear_1_211" x1="40" y1="10" x2="40" y2="90" gradientUnits="userSpaceOnUse">
<stop stop-color="#DF8908"/>
<stop offset="1" stop-color="#B415FF"/>
</linearGradient>
</defs>
</svg>
