<svg width="165" height="57" viewBox="0 0 165 57" fill="none" xmlns="http://www.w3.org/2000/svg">
<path d="M123.021 51.3462L10.6152 28.5L123.021 5.65381V51.3462Z" stroke="url(#paint0_linear_1_211)" stroke-width="3"/>
<ellipse cx="30.8411" cy="28.5" rx="22.8" ry="30.8411" transform="rotate(-90 30.8411 28.5)" fill="url(#paint1_linear_1_211)"/>
<path d="M13.1075 37.2359V20.52H23.2272C27.8443 20.52 30.1529 22.0903 30.1529 25.2308C30.1529 28.6364 26.9957 30.6976 20.6814 31.4145L20.0806 28.6558C23.8755 28.1493 25.773 27.0388 25.773 25.3243C25.773 23.9372 24.8348 23.2436 22.9584 23.2436H17.2977V37.2359H13.1075Z" fill="#FFFBFB"/>
<path d="M32.5405 37.2359V24.962H35.782L36.3038 26.5283C37.7585 25.4841 39.2976 24.962 40.9209 24.962V27.4635C39.3608 27.4635 37.9641 27.9428 36.7308 28.9013V37.2359H32.5405Z" fill="#FFFBFB"/>
<path d="M47.483 20.52V22.9747H43.2928V20.52H47.483ZM47.483 24.962V37.2359H43.2928V24.962H47.483Z" fill="#FFFBFB"/>
<path d="M49.4753 24.962H53.9185L58.1087 33.7992L62.2041 24.962H66.5682L59.6741 37.5982C58.4513 39.8271 56.4958 41.4129 53.8078 42.3559L51.7838 40.2401C53.6392 39.64 54.9885 38.662 55.8317 37.306L49.4753 24.962Z" fill="#FFFBFB"/>
<path d="M67.7699 33.4134C67.7699 30.9742 70.1733 29.7546 74.9802 29.7546C76.1082 29.7546 77.2361 29.8326 78.3639 29.9884V29.0649C78.3639 27.9662 77.294 27.4167 75.1542 27.4167C73.341 27.4167 71.3276 27.6116 69.1139 28.0012V25.5465C71.3276 25.1568 73.341 24.962 75.1542 24.962C80.0875 24.962 82.5542 26.3101 82.5542 29.0065V37.2359H80.1191L78.6328 36.1371C77.1886 36.8696 75.5969 37.2359 73.8575 37.2359C69.7991 37.2359 67.7699 35.9617 67.7699 33.4134ZM78.3639 32.0925C77.3099 31.9367 76.1819 31.8587 74.9802 31.8587C72.9668 31.8587 71.9601 32.3653 71.9601 33.3784C71.9601 34.4694 72.8034 35.0149 74.49 35.0149C75.8815 35.0149 77.1728 34.6954 78.3639 34.0563V32.0925Z" fill="#FFFBFB"/>
<path d="M86.5232 37.2359V24.962H89.7646L90.255 26.7388C91.7408 25.5542 93.528 24.962 95.6152 24.962C97.7024 24.962 99.1303 25.523 99.8998 26.6452C101.598 25.523 103.373 24.962 105.229 24.962C109.045 24.962 110.952 26.5167 110.952 29.6261V37.2359H106.763V29.5092C106.763 28.1454 105.93 27.4635 104.265 27.4635C103.02 27.4635 101.824 27.8765 100.675 28.7026V37.2359H96.4849V29.5442C96.4849 28.1571 95.7154 27.4635 94.1764 27.4635C92.9536 27.4635 91.7994 27.8765 90.713 28.7026V37.2359H86.5232Z" fill="#FFFBFB"/>
<defs>
<linearGradient id="paint0_linear_1_211" x1="3.08411" y1="28.5" x2="165" y2="28.5" gradientUnits="userSpaceOnUse">
<stop stop-color="#DF8908"/>
<stop offset="1" stop-color="#B415FF"/>
</linearGradient>
<linearGradient id="paint1_linear_1_211" x1="30.8411" y1="-2.34113" x2="30.8411" y2="59.3411" gradientUnits="userSpaceOnUse">
<stop stop-color="#DF8908"/>
<stop offset="1" stop-color="#B415FF"/>
</linearGradient>
</defs>
</svg>
