<svg width="103" height="72" viewBox="0 0 103 72" fill="none" xmlns="http://www.w3.org/2000/svg">
<rect x="34.1213" y="36.3553" width="47" height="47" transform="rotate(-45 34.1213 36.3553)" stroke="url(#paint0_linear_1_218)" stroke-width="3"/>
<rect x="17" y="36.3553" width="50" height="50" transform="rotate(-45 17 36.3553)" fill="url(#paint1_linear_1_218)"/>
<rect x="2.91661" y="36.1506" width="47" height="47" transform="rotate(-45 2.91661 36.1506)" stroke="url(#paint2_linear_1_218)" stroke-width="3"/>
<path d="M24.6621 53V18.0879H40.2871C47.416 18.0879 50.9805 21.3675 50.9805 27.9268C50.9805 35.0394 46.1058 39.3444 36.3564 40.8418L35.4287 35.0801C41.2881 34.0221 44.2178 31.7028 44.2178 28.1221C44.2178 25.2249 42.7692 23.7764 39.8721 23.7764H31.1318V53H24.6621Z" fill="white"/>
<path d="M54.667 51.5352V45.6758C58.1663 46.9779 62.1214 47.6289 66.5322 47.6289C71.887 47.6289 74.5645 45.8385 74.5645 42.2578C74.5645 39.6536 72.9206 38.3516 69.6328 38.3516H64.1641C57.0189 38.3516 53.4463 35.0964 53.4463 28.5859C53.4463 21.4245 58.5326 17.8438 68.7051 17.8438C72.6113 17.8438 76.3141 18.4134 79.8135 19.5527V25.4121C76.3141 24.11 72.6113 23.459 68.7051 23.459C62.8457 23.459 59.916 25.168 59.916 28.5859C59.916 31.1901 61.332 32.4922 64.1641 32.4922H69.6328C77.2337 32.4922 81.0342 35.7474 81.0342 42.2578C81.0342 49.582 76.2002 53.2441 66.5322 53.2441C62.1214 53.2441 58.1663 52.6745 54.667 51.5352Z" fill="white"/>
<defs>
<linearGradient id="paint0_linear_1_218" x1="82" y1="61.3553" x2="32" y2="61.3553" gradientUnits="userSpaceOnUse">
<stop stop-color="#DF8908"/>
<stop offset="0.82" stop-color="#6C0D99"/>
</linearGradient>
<linearGradient id="paint1_linear_1_218" x1="67" y1="61.3553" x2="17" y2="61.3553" gradientUnits="userSpaceOnUse">
<stop stop-color="#DF8908"/>
<stop offset="1" stop-color="#B415FF"/>
</linearGradient>
<linearGradient id="paint2_linear_1_218" x1="50.7953" y1="61.1506" x2="0.795288" y2="61.1506" gradientUnits="userSpaceOnUse">
<stop stop-color="#DF8908"/>
<stop offset="0.82" stop-color="#6C0D99"/>
</linearGradient>
</defs>
</svg>
