<svg width="1276" height="379" viewBox="0 0 1276 379" fill="none" xmlns="http://www.w3.org/2000/svg">
<mask id="path-1-outside-1_4004_2" maskUnits="userSpaceOnUse" x="-0.475098" y="-0.599976" width="1276" height="379" fill="black">
<rect fill="white" x="-0.475098" y="-0.599976" width="1276" height="379"/>
<path d="M116 296.4C102.933 296.4 90.9332 293.867 79.9999 288.8C69.0666 283.733 60.1332 276.8 53.1999 268C46.2666 258.933 42.2666 248.667 41.1999 237.2V155.2C42.2666 143.733 46.2666 133.333 53.1999 124C60.1332 114.667 69.0666 107.333 79.9999 102C90.9332 96.6667 102.933 94 116 94C134.4 94 150.667 98.4 164.8 107.2C179.2 116 190.4 128 198.4 143.2C206.667 158.4 210.8 175.733 210.8 195.2C210.8 214.667 206.667 232 198.4 247.2C190.4 262.4 179.2 274.4 164.8 283.2C150.667 292 134.4 296.4 116 296.4ZM3.9999 374.4V98H65.1999V148L55.1999 195.2L64.3999 242.4V374.4H3.9999ZM104.8 241.2C113.6 241.2 121.2 239.2 127.6 235.2C134.267 231.2 139.467 225.733 143.2 218.8C146.933 211.867 148.8 204 148.8 195.2C148.8 186.133 146.933 178.133 143.2 171.2C139.467 164.267 134.267 158.933 127.6 155.2C121.2 151.2 113.733 149.2 105.2 149.2C96.6666 149.2 89.0666 151.2 82.3999 155.2C75.9999 158.933 70.9332 164.267 67.1999 171.2C63.4666 178.133 61.5999 186.133 61.5999 195.2C61.5999 204 63.3332 211.867 66.7999 218.8C70.5332 225.733 75.7332 231.2 82.3999 235.2C89.0666 239.2 96.5332 241.2 104.8 241.2ZM241.891 292.4V98H303.091V292.4H241.891ZM303.091 185.6L277.491 165.6C282.557 142.933 291.091 125.333 303.091 112.8C315.091 100.267 331.757 94 353.091 94C362.424 94 370.557 95.4667 377.491 98.4C384.691 101.067 390.957 105.333 396.291 111.2L359.891 157.2C357.224 154.267 353.891 152 349.891 150.4C345.891 148.8 341.357 148 336.291 148C326.157 148 318.024 151.2 311.891 157.6C306.024 163.733 303.091 173.067 303.091 185.6ZM412.594 292.4V98H473.794V292.4H412.594ZM443.394 71.2C433.794 71.2 425.794 68 419.394 61.6C413.26 54.9333 410.194 46.9333 410.194 37.6C410.194 28 413.26 20 419.394 13.6C425.794 7.20002 433.794 4.00002 443.394 4.00002C452.994 4.00002 460.86 7.20002 466.994 13.6C473.127 20 476.194 28 476.194 37.6C476.194 46.9333 473.127 54.9333 466.994 61.6C460.86 68 452.994 71.2 443.394 71.2ZM576.891 293.2L496.891 98H562.891L613.691 252.8H589.291L641.291 98H707.291L624.091 293.2H576.891ZM526.891 374.4L585.291 248.4L624.091 293.2L589.691 374.4H526.891ZM804.341 296.4C786.474 296.4 770.474 292 756.341 283.2C742.474 274.4 731.407 262.4 723.141 247.2C715.141 232 711.141 214.667 711.141 195.2C711.141 175.733 715.141 158.4 723.141 143.2C731.407 128 742.474 116 756.341 107.2C770.474 98.4 786.474 94 804.341 94C817.407 94 829.141 96.5333 839.541 101.6C850.207 106.667 858.874 113.733 865.541 122.8C872.207 131.6 875.941 141.733 876.741 153.2V237.2C875.941 248.667 872.207 258.933 865.541 268C859.141 276.8 850.607 283.733 839.941 288.8C829.274 293.867 817.407 296.4 804.341 296.4ZM816.741 241.2C829.807 241.2 840.341 236.933 848.341 228.4C856.341 219.6 860.341 208.533 860.341 195.2C860.341 186.133 858.474 178.133 854.741 171.2C851.274 164.267 846.207 158.933 839.541 155.2C833.141 151.2 825.674 149.2 817.141 149.2C808.607 149.2 801.007 151.2 794.341 155.2C787.941 158.933 782.741 164.267 778.741 171.2C775.007 178.133 773.141 186.133 773.141 195.2C773.141 204 775.007 211.867 778.741 218.8C782.474 225.733 787.674 231.2 794.341 235.2C801.007 239.2 808.474 241.2 816.741 241.2ZM857.941 292.4V240L867.141 192.8L857.941 145.6V98H917.941V292.4H857.941ZM961.031 292.4V98H1022.23V292.4H961.031ZM1085.43 292.4V178.8C1085.43 168.933 1082.36 161.333 1076.23 156C1070.36 150.4 1063.03 147.6 1054.23 147.6C1048.1 147.6 1042.63 148.933 1037.83 151.6C1033.03 154 1029.16 157.467 1026.23 162C1023.56 166.533 1022.23 172.133 1022.23 178.8L998.631 168.4C998.631 152.933 1001.96 139.733 1008.63 128.8C1015.3 117.6 1024.36 109.067 1035.83 103.2C1047.3 97.0667 1060.23 94 1074.63 94C1088.23 94 1100.36 97.0667 1111.03 103.2C1121.96 109.333 1130.63 117.867 1137.03 128.8C1143.43 139.733 1146.63 152.8 1146.63 168V292.4H1085.43ZM1209.83 292.4V178.8C1209.83 168.933 1206.76 161.333 1200.63 156C1194.76 150.4 1187.43 147.6 1178.63 147.6C1172.5 147.6 1167.03 148.933 1162.23 151.6C1157.43 154 1153.56 157.467 1150.63 162C1147.96 166.533 1146.63 172.133 1146.63 178.8L1111.43 174C1111.96 157.467 1115.83 143.333 1123.03 131.6C1130.5 119.6 1140.23 110.4 1152.23 104C1164.5 97.3333 1178.23 94 1193.43 94C1208.36 94 1221.56 97.2 1233.03 103.6C1244.76 109.733 1253.96 118.667 1260.63 130.4C1267.56 141.867 1271.03 155.733 1271.03 172V292.4H1209.83Z"/>
</mask>
<path d="M116 296.4C102.933 296.4 90.9332 293.867 79.9999 288.8C69.0666 283.733 60.1332 276.8 53.1999 268C46.2666 258.933 42.2666 248.667 41.1999 237.2V155.2C42.2666 143.733 46.2666 133.333 53.1999 124C60.1332 114.667 69.0666 107.333 79.9999 102C90.9332 96.6667 102.933 94 116 94C134.4 94 150.667 98.4 164.8 107.2C179.2 116 190.4 128 198.4 143.2C206.667 158.4 210.8 175.733 210.8 195.2C210.8 214.667 206.667 232 198.4 247.2C190.4 262.4 179.2 274.4 164.8 283.2C150.667 292 134.4 296.4 116 296.4ZM3.9999 374.4V98H65.1999V148L55.1999 195.2L64.3999 242.4V374.4H3.9999ZM104.8 241.2C113.6 241.2 121.2 239.2 127.6 235.2C134.267 231.2 139.467 225.733 143.2 218.8C146.933 211.867 148.8 204 148.8 195.2C148.8 186.133 146.933 178.133 143.2 171.2C139.467 164.267 134.267 158.933 127.6 155.2C121.2 151.2 113.733 149.2 105.2 149.2C96.6666 149.2 89.0666 151.2 82.3999 155.2C75.9999 158.933 70.9332 164.267 67.1999 171.2C63.4666 178.133 61.5999 186.133 61.5999 195.2C61.5999 204 63.3332 211.867 66.7999 218.8C70.5332 225.733 75.7332 231.2 82.3999 235.2C89.0666 239.2 96.5332 241.2 104.8 241.2ZM241.891 292.4V98H303.091V292.4H241.891ZM303.091 185.6L277.491 165.6C282.557 142.933 291.091 125.333 303.091 112.8C315.091 100.267 331.757 94 353.091 94C362.424 94 370.557 95.4667 377.491 98.4C384.691 101.067 390.957 105.333 396.291 111.2L359.891 157.2C357.224 154.267 353.891 152 349.891 150.4C345.891 148.8 341.357 148 336.291 148C326.157 148 318.024 151.2 311.891 157.6C306.024 163.733 303.091 173.067 303.091 185.6ZM412.594 292.4V98H473.794V292.4H412.594ZM443.394 71.2C433.794 71.2 425.794 68 419.394 61.6C413.26 54.9333 410.194 46.9333 410.194 37.6C410.194 28 413.26 20 419.394 13.6C425.794 7.20002 433.794 4.00002 443.394 4.00002C452.994 4.00002 460.86 7.20002 466.994 13.6C473.127 20 476.194 28 476.194 37.6C476.194 46.9333 473.127 54.9333 466.994 61.6C460.86 68 452.994 71.2 443.394 71.2ZM576.891 293.2L496.891 98H562.891L613.691 252.8H589.291L641.291 98H707.291L624.091 293.2H576.891ZM526.891 374.4L585.291 248.4L624.091 293.2L589.691 374.4H526.891ZM804.341 296.4C786.474 296.4 770.474 292 756.341 283.2C742.474 274.4 731.407 262.4 723.141 247.2C715.141 232 711.141 214.667 711.141 195.2C711.141 175.733 715.141 158.4 723.141 143.2C731.407 128 742.474 116 756.341 107.2C770.474 98.4 786.474 94 804.341 94C817.407 94 829.141 96.5333 839.541 101.6C850.207 106.667 858.874 113.733 865.541 122.8C872.207 131.6 875.941 141.733 876.741 153.2V237.2C875.941 248.667 872.207 258.933 865.541 268C859.141 276.8 850.607 283.733 839.941 288.8C829.274 293.867 817.407 296.4 804.341 296.4ZM816.741 241.2C829.807 241.2 840.341 236.933 848.341 228.4C856.341 219.6 860.341 208.533 860.341 195.2C860.341 186.133 858.474 178.133 854.741 171.2C851.274 164.267 846.207 158.933 839.541 155.2C833.141 151.2 825.674 149.2 817.141 149.2C808.607 149.2 801.007 151.2 794.341 155.2C787.941 158.933 782.741 164.267 778.741 171.2C775.007 178.133 773.141 186.133 773.141 195.2C773.141 204 775.007 211.867 778.741 218.8C782.474 225.733 787.674 231.2 794.341 235.2C801.007 239.2 808.474 241.2 816.741 241.2ZM857.941 292.4V240L867.141 192.8L857.941 145.6V98H917.941V292.4H857.941ZM961.031 292.4V98H1022.23V292.4H961.031ZM1085.43 292.4V178.8C1085.43 168.933 1082.36 161.333 1076.23 156C1070.36 150.4 1063.03 147.6 1054.23 147.6C1048.1 147.6 1042.63 148.933 1037.83 151.6C1033.03 154 1029.16 157.467 1026.23 162C1023.56 166.533 1022.23 172.133 1022.23 178.8L998.631 168.4C998.631 152.933 1001.96 139.733 1008.63 128.8C1015.3 117.6 1024.36 109.067 1035.83 103.2C1047.3 97.0667 1060.23 94 1074.63 94C1088.23 94 1100.36 97.0667 1111.03 103.2C1121.96 109.333 1130.63 117.867 1137.03 128.8C1143.43 139.733 1146.63 152.8 1146.63 168V292.4H1085.43ZM1209.83 292.4V178.8C1209.83 168.933 1206.76 161.333 1200.63 156C1194.76 150.4 1187.43 147.6 1178.63 147.6C1172.5 147.6 1167.03 148.933 1162.23 151.6C1157.43 154 1153.56 157.467 1150.63 162C1147.96 166.533 1146.63 172.133 1146.63 178.8L1111.43 174C1111.96 157.467 1115.83 143.333 1123.03 131.6C1130.5 119.6 1140.23 110.4 1152.23 104C1164.5 97.3333 1178.23 94 1193.43 94C1208.36 94 1221.56 97.2 1233.03 103.6C1244.76 109.733 1253.96 118.667 1260.63 130.4C1267.56 141.867 1271.03 155.733 1271.03 172V292.4H1209.83Z" fill="url(#paint0_linear_4004_2)" fill-opacity="0.33"/>
<path d="M79.9999 288.8L81.6817 285.171V285.171L79.9999 288.8ZM53.1999 268L50.0225 270.43L50.04 270.453L50.0579 270.476L53.1999 268ZM41.1999 237.2H37.1999V237.386L37.2171 237.571L41.1999 237.2ZM41.1999 155.2L37.2171 154.83L37.1999 155.014V155.2H41.1999ZM53.1999 124L49.9889 121.615V121.615L53.1999 124ZM79.9999 102L81.7536 105.595V105.595L79.9999 102ZM164.8 107.2L162.686 110.596L162.7 110.604L162.714 110.613L164.8 107.2ZM198.4 143.2L194.86 145.063L194.873 145.087L194.886 145.111L198.4 143.2ZM198.4 247.2L194.886 245.289L194.873 245.313L194.86 245.337L198.4 247.2ZM164.8 283.2L162.714 279.787L162.7 279.796L162.686 279.804L164.8 283.2ZM3.9999 374.4H-9.91821e-05V378.4H3.9999V374.4ZM3.9999 98V94H-9.91821e-05V98H3.9999ZM65.1999 98H69.1999V94H65.1999V98ZM65.1999 148L69.1131 148.829L69.1999 148.419V148H65.1999ZM55.1999 195.2L51.2868 194.371L51.1182 195.167L51.2738 195.965L55.1999 195.2ZM64.3999 242.4H68.3999V242.014L68.326 241.635L64.3999 242.4ZM64.3999 374.4V378.4H68.3999V374.4H64.3999ZM127.6 235.2L125.542 231.77L125.511 231.789L125.48 231.808L127.6 235.2ZM143.2 218.8L139.678 216.904V216.904L143.2 218.8ZM143.2 171.2L139.678 173.096V173.096L143.2 171.2ZM127.6 155.2L125.48 158.592L125.562 158.643L125.645 158.69L127.6 155.2ZM82.3999 155.2L84.4154 158.655L84.4367 158.643L84.4579 158.63L82.3999 155.2ZM67.1999 171.2L70.7218 173.096V173.096L67.1999 171.2ZM66.7999 218.8L63.2222 220.589L63.2493 220.643L63.278 220.696L66.7999 218.8ZM82.3999 235.2L80.3419 238.63V238.63L82.3999 235.2ZM116 296.4V292.4C103.464 292.4 92.0447 289.973 81.6817 285.171L79.9999 288.8L78.3181 292.429C89.8217 297.76 102.402 300.4 116 300.4V296.4ZM79.9999 288.8L81.6817 285.171C71.2749 280.348 62.8569 273.794 56.3419 265.525L53.1999 268L50.0579 270.476C57.4095 279.806 66.8582 287.119 78.3181 292.429L79.9999 288.8ZM53.1999 268L56.3773 265.57C49.9049 257.106 46.1804 247.555 45.1827 236.83L41.1999 237.2L37.2171 237.571C38.3527 249.779 42.6282 260.76 50.0225 270.43L53.1999 268ZM41.1999 237.2H45.1999V155.2H41.1999H37.1999V237.2H41.1999ZM41.1999 155.2L45.1827 155.571C46.1808 144.841 49.9101 135.136 56.4109 126.385L53.1999 124L49.9889 121.615C42.6231 131.53 38.3523 142.626 37.2171 154.83L41.1999 155.2ZM53.1999 124L56.4109 126.385C62.9445 117.59 71.3684 110.661 81.7536 105.595L79.9999 102L78.2462 98.4049C66.7648 104.006 57.322 111.743 49.9889 121.615L53.1999 124ZM79.9999 102L81.7536 105.595C92.1008 100.548 103.495 98 116 98V94V90C102.371 90 89.7656 92.7857 78.2462 98.4049L79.9999 102ZM116 94V98C133.734 98 149.252 102.231 162.686 110.596L164.8 107.2L166.914 103.804C152.081 94.5686 135.066 90 116 90V94ZM164.8 107.2L162.714 110.613C176.487 119.03 187.19 130.489 194.86 145.063L198.4 143.2L201.94 141.337C193.61 125.511 181.913 112.97 166.886 103.787L164.8 107.2ZM198.4 143.2L194.886 145.111C202.795 159.654 206.8 176.316 206.8 195.2H210.8H214.8C214.8 175.151 210.538 157.146 201.914 141.289L198.4 143.2ZM210.8 195.2H206.8C206.8 214.084 202.795 230.746 194.886 245.289L198.4 247.2L201.914 249.111C210.538 233.254 214.8 215.25 214.8 195.2H210.8ZM198.4 247.2L194.86 245.337C187.19 259.911 176.487 271.37 162.714 279.787L164.8 283.2L166.886 286.613C181.913 277.43 193.61 264.889 201.94 249.063L198.4 247.2ZM164.8 283.2L162.686 279.804C149.252 288.169 133.734 292.4 116 292.4V296.4V300.4C135.066 300.4 152.081 295.831 166.914 286.596L164.8 283.2ZM3.9999 374.4H7.9999V98H3.9999H-9.91821e-05V374.4H3.9999ZM3.9999 98V102H65.1999V98V94H3.9999V98ZM65.1999 98H61.1999V148H65.1999H69.1999V98H65.1999ZM65.1999 148L61.2868 147.171L51.2868 194.371L55.1999 195.2L59.1131 196.029L69.1131 148.829L65.1999 148ZM55.1999 195.2L51.2738 195.965L60.4738 243.165L64.3999 242.4L68.326 241.635L59.126 194.435L55.1999 195.2ZM64.3999 242.4H60.3999V374.4H64.3999H68.3999V242.4H64.3999ZM64.3999 374.4V370.4H3.9999V374.4V378.4H64.3999V374.4ZM104.8 241.2V245.2C114.223 245.2 122.585 243.051 129.72 238.592L127.6 235.2L125.48 231.808C119.815 235.349 112.977 237.2 104.8 237.2V241.2ZM127.6 235.2L129.658 238.63C136.95 234.255 142.652 228.255 146.722 220.696L143.2 218.8L139.678 216.904C136.281 223.212 131.583 228.145 125.542 231.77L127.6 235.2ZM143.2 218.8L146.722 220.696C150.804 213.114 152.8 204.583 152.8 195.2H148.8H144.8C144.8 203.417 143.062 210.619 139.678 216.904L143.2 218.8ZM148.8 195.2H152.8C152.8 185.572 150.814 176.903 146.722 169.304L143.2 171.2L139.678 173.096C143.053 179.364 144.8 186.694 144.8 195.2H148.8ZM143.2 171.2L146.722 169.304C142.64 161.723 136.905 155.827 129.554 151.71L127.6 155.2L125.645 158.69C131.628 162.04 136.293 166.811 139.678 173.096L143.2 171.2ZM127.6 155.2L129.72 151.808C122.604 147.361 114.382 145.2 105.2 145.2V149.2V153.2C113.084 153.2 119.796 155.039 125.48 158.592L127.6 155.2ZM105.2 149.2V145.2C96.0146 145.2 87.69 147.361 80.3419 151.77L82.3999 155.2L84.4579 158.63C90.4432 155.039 97.3186 153.2 105.2 153.2V149.2ZM82.3999 155.2L80.3844 151.745C73.308 155.873 67.7376 161.764 63.678 169.304L67.1999 171.2L70.7218 173.096C74.1289 166.769 78.6918 161.994 84.4154 158.655L82.3999 155.2ZM67.1999 171.2L63.678 169.304C59.5862 176.903 57.5999 185.572 57.5999 195.2H61.5999H65.5999C65.5999 186.694 67.3469 179.364 70.7218 173.096L67.1999 171.2ZM61.5999 195.2H57.5999C57.5999 204.536 59.4423 213.029 63.2222 220.589L66.7999 218.8L70.3776 217.011C67.2241 210.704 65.5999 203.464 65.5999 195.2H61.5999ZM66.7999 218.8L63.278 220.696C67.3479 228.255 73.0499 234.255 80.3419 238.63L82.3999 235.2L84.4579 231.77C78.4165 228.145 73.7186 223.212 70.3218 216.904L66.7999 218.8ZM82.3999 235.2L80.3419 238.63C87.67 243.027 95.856 245.2 104.8 245.2V241.2V237.2C97.2105 237.2 90.4632 235.373 84.4579 231.77L82.3999 235.2ZM241.891 292.4H237.891V296.4H241.891V292.4ZM241.891 98V94H237.891V98H241.891ZM303.091 98H307.091V94H303.091V98ZM303.091 292.4V296.4H307.091V292.4H303.091ZM303.091 185.6L300.628 188.752L307.091 193.801V185.6H303.091ZM277.491 165.6L273.587 164.727L273.035 167.195L275.028 168.752L277.491 165.6ZM303.091 112.8L305.98 115.566L303.091 112.8ZM377.491 98.4L375.932 102.084L376.016 102.119L376.101 102.151L377.491 98.4ZM396.291 111.2L399.427 113.682L401.533 111.021L399.25 108.509L396.291 111.2ZM359.891 157.2L356.931 159.891L360.102 163.379L363.027 159.682L359.891 157.2ZM349.891 150.4L348.405 154.114V154.114L349.891 150.4ZM311.891 157.6L309.003 154.832L309 154.835L311.891 157.6ZM241.891 292.4H245.891V98H241.891H237.891V292.4H241.891ZM241.891 98V102H303.091V98V94H241.891V98ZM303.091 98H299.091V292.4H303.091H307.091V98H303.091ZM303.091 292.4V288.4H241.891V292.4V296.4H303.091V292.4ZM303.091 185.6L305.553 182.448L279.953 162.448L277.491 165.6L275.028 168.752L300.628 188.752L303.091 185.6ZM277.491 165.6L281.394 166.473C286.354 144.284 294.628 127.423 305.98 115.566L303.091 112.8L300.201 110.034C287.554 123.244 278.76 141.582 273.587 164.727L277.491 165.6ZM303.091 112.8L305.98 115.566C317.058 103.995 332.581 98 353.091 98V94V90C330.934 90 313.123 96.5379 300.201 110.034L303.091 112.8ZM353.091 94V98C362.013 98 369.595 99.4027 375.932 102.084L377.491 98.4L379.049 94.7161C371.52 91.5306 362.835 90 353.091 90V94ZM377.491 98.4L376.101 102.151C382.68 104.588 388.414 108.482 393.331 113.891L396.291 111.2L399.25 108.509C393.501 102.185 386.701 97.5456 378.88 94.649L377.491 98.4ZM396.291 111.2L393.154 108.718L356.754 154.718L359.891 157.2L363.027 159.682L399.427 113.682L396.291 111.2ZM359.891 157.2L362.85 154.509C359.742 151.09 355.889 148.491 351.376 146.686L349.891 150.4L348.405 154.114C351.892 155.509 354.706 157.444 356.931 159.891L359.891 157.2ZM349.891 150.4L351.376 146.686C346.828 144.867 341.778 144 336.291 144V148V152C340.936 152 344.953 152.733 348.405 154.114L349.891 150.4ZM336.291 148V144C325.238 144 316.001 147.53 309.003 154.832L311.891 157.6L314.779 160.368C320.047 154.87 327.077 152 336.291 152V148ZM311.891 157.6L309 154.835C302.145 162.002 299.091 172.522 299.091 185.6H303.091H307.091C307.091 173.612 309.903 165.465 314.781 160.365L311.891 157.6ZM412.594 292.4H408.594V296.4H412.594V292.4ZM412.594 98V94H408.594V98H412.594ZM473.794 98H477.794V94H473.794V98ZM473.794 292.4V296.4H477.794V292.4H473.794ZM419.394 61.6L416.45 64.3082L416.506 64.3695L416.565 64.4284L419.394 61.6ZM419.394 13.6L416.565 10.7716L416.535 10.8017L416.506 10.8324L419.394 13.6ZM466.994 61.6L469.882 64.3676L469.91 64.3382L469.937 64.3082L466.994 61.6ZM412.594 292.4H416.594V98H412.594H408.594V292.4H412.594ZM412.594 98V102H473.794V98V94H412.594V98ZM473.794 98H469.794V292.4H473.794H477.794V98H473.794ZM473.794 292.4V288.4H412.594V292.4V296.4H473.794V292.4ZM443.394 71.2V67.2C434.783 67.2 427.823 64.3724 422.222 58.7716L419.394 61.6L416.565 64.4284C423.764 71.6276 432.804 75.2 443.394 75.2V71.2ZM419.394 61.6L422.337 58.8918C416.906 52.9878 414.194 45.9636 414.194 37.6H410.194H406.194C406.194 47.903 409.615 56.8789 416.45 64.3082L419.394 61.6ZM410.194 37.6H414.194C414.194 28.9376 416.924 21.9579 422.282 16.3676L419.394 13.6L416.506 10.8324C409.596 18.0422 406.194 27.0624 406.194 37.6H410.194ZM419.394 13.6L422.222 16.4284C427.823 10.8276 434.783 8.00002 443.394 8.00002V4.00002V1.90735e-05C432.804 1.90735e-05 423.764 3.57241 416.565 10.7716L419.394 13.6ZM443.394 4.00002V8.00002C452.004 8.00002 458.794 10.8246 464.106 16.3676L466.994 13.6L469.882 10.8324C462.927 3.57541 453.984 1.90735e-05 443.394 1.90735e-05V4.00002ZM466.994 13.6L464.106 16.3676C469.463 21.9579 472.194 28.9376 472.194 37.6H476.194H480.194C480.194 27.0624 476.791 18.0422 469.882 10.8324L466.994 13.6ZM476.194 37.6H472.194C472.194 45.9636 469.482 52.9878 464.05 58.8918L466.994 61.6L469.937 64.3082C476.772 56.8789 480.194 47.903 480.194 37.6H476.194ZM466.994 61.6L464.106 58.8324C458.794 64.3754 452.004 67.2 443.394 67.2V71.2V75.2C453.984 75.2 462.927 71.6246 469.882 64.3676L466.994 61.6ZM576.891 293.2L573.189 294.717L574.207 297.2H576.891V293.2ZM496.891 98V94H490.928L493.189 99.5169L496.891 98ZM562.891 98L566.691 96.7528L565.788 94H562.891V98ZM613.691 252.8V256.8H619.213L617.491 251.553L613.691 252.8ZM589.291 252.8L585.499 251.526L583.727 256.8H589.291V252.8ZM641.291 98V94H638.415L637.499 96.7263L641.291 98ZM707.291 98L710.97 99.5684L713.344 94H707.291V98ZM624.091 293.2V297.2H626.734L627.77 294.768L624.091 293.2ZM526.891 374.4L523.261 372.718L520.628 378.4H526.891V374.4ZM585.291 248.4L588.314 245.781L584.263 241.104L581.661 246.718L585.291 248.4ZM624.091 293.2L627.774 294.76L628.746 292.465L627.114 290.581L624.091 293.2ZM589.691 374.4V378.4H592.34L593.374 375.96L589.691 374.4ZM576.891 293.2L580.592 291.683L500.592 96.4831L496.891 98L493.189 99.5169L573.189 294.717L576.891 293.2ZM496.891 98V102H562.891V98V94H496.891V98ZM562.891 98L559.09 99.2472L609.89 254.047L613.691 252.8L617.491 251.553L566.691 96.7528L562.891 98ZM613.691 252.8V248.8H589.291V252.8V256.8H613.691V252.8ZM589.291 252.8L593.082 254.074L645.082 99.2737L641.291 98L637.499 96.7263L585.499 251.526L589.291 252.8ZM641.291 98V102H707.291V98V94H641.291V98ZM707.291 98L703.611 96.4316L620.411 291.632L624.091 293.2L627.77 294.768L710.97 99.5684L707.291 98ZM624.091 293.2V289.2H576.891V293.2V297.2H624.091V293.2ZM526.891 374.4L530.52 376.082L588.92 250.082L585.291 248.4L581.661 246.718L523.261 372.718L526.891 374.4ZM585.291 248.4L582.267 251.019L621.067 295.819L624.091 293.2L627.114 290.581L588.314 245.781L585.291 248.4ZM624.091 293.2L620.407 291.64L586.007 372.84L589.691 374.4L593.374 375.96L627.774 294.76L624.091 293.2ZM589.691 374.4V370.4H526.891V374.4V378.4H589.691V374.4ZM756.341 283.2L754.197 286.577L754.212 286.587L754.226 286.596L756.341 283.2ZM723.141 247.2L719.601 249.063L719.614 249.087L719.627 249.111L723.141 247.2ZM723.141 143.2L719.627 141.289L719.614 141.313L719.601 141.337L723.141 143.2ZM756.341 107.2L754.226 103.804L754.212 103.813L754.197 103.823L756.341 107.2ZM839.541 101.6L837.789 105.196L837.806 105.205L837.824 105.213L839.541 101.6ZM865.541 122.8L862.318 125.17L862.335 125.193L862.352 125.215L865.541 122.8ZM876.741 153.2H880.741V153.061L880.731 152.922L876.741 153.2ZM876.741 237.2L880.731 237.478L880.741 237.339V237.2H876.741ZM865.541 268L862.318 265.63L862.312 265.639L862.306 265.647L865.541 268ZM839.941 288.8L838.224 285.187L839.941 288.8ZM848.341 228.4L851.259 231.136L851.28 231.113L851.3 231.091L848.341 228.4ZM854.741 171.2L851.163 172.989L851.19 173.043L851.219 173.096L854.741 171.2ZM839.541 155.2L837.421 158.592L837.502 158.643L837.586 158.69L839.541 155.2ZM794.341 155.2L796.356 158.655L796.377 158.643L796.398 158.63L794.341 155.2ZM778.741 171.2L775.276 169.201L775.246 169.252L775.219 169.304L778.741 171.2ZM778.741 218.8L775.219 220.696V220.696L778.741 218.8ZM857.941 292.4H853.941V296.4H857.941V292.4ZM857.941 240L854.014 239.235L853.941 239.614V240H857.941ZM867.141 192.8L871.067 193.565L871.216 192.8L871.067 192.035L867.141 192.8ZM857.941 145.6H853.941V145.986L854.014 146.365L857.941 145.6ZM857.941 98V94H853.941V98H857.941ZM917.941 98H921.941V94H917.941V98ZM917.941 292.4V296.4H921.941V292.4H917.941ZM804.341 296.4V292.4C787.164 292.4 771.907 288.18 758.455 279.804L756.341 283.2L754.226 286.596C769.041 295.82 785.783 300.4 804.341 300.4V296.4ZM756.341 283.2L758.484 279.823C745.222 271.407 734.614 259.925 726.654 245.289L723.141 247.2L719.627 249.111C728.2 264.875 739.725 277.393 754.197 286.577L756.341 283.2ZM723.141 247.2L726.68 245.337C719.021 230.784 715.141 214.105 715.141 195.2H711.141H707.141C707.141 215.228 711.26 233.216 719.601 249.063L723.141 247.2ZM711.141 195.2H715.141C715.141 176.295 719.021 159.616 726.68 145.063L723.141 143.2L719.601 141.337C711.26 157.184 707.141 175.172 707.141 195.2H711.141ZM723.141 143.2L726.654 145.111C734.614 130.475 745.222 118.993 758.484 110.577L756.341 107.2L754.197 103.823C739.725 113.007 728.2 125.525 719.627 141.289L723.141 143.2ZM756.341 107.2L758.455 110.596C771.907 102.22 787.164 98 804.341 98V94V90C785.783 90 769.041 94.5804 754.226 103.804L756.341 107.2ZM804.341 94V98C816.879 98 828.001 100.428 837.789 105.196L839.541 101.6L841.292 98.0041C830.28 92.6389 817.935 90 804.341 90V94ZM839.541 101.6L837.824 105.213C847.924 110.011 856.062 116.662 862.318 125.17L865.541 122.8L868.763 120.43C861.685 110.805 852.49 103.323 841.257 97.9869L839.541 101.6ZM865.541 122.8L862.352 125.215C868.53 133.37 872.002 142.753 872.75 153.478L876.741 153.2L880.731 152.922C879.879 140.714 875.885 129.83 868.729 120.385L865.541 122.8ZM876.741 153.2H872.741V237.2H876.741H880.741V153.2H876.741ZM876.741 237.2L872.75 236.922C872.002 247.65 868.526 257.188 862.318 265.63L865.541 268L868.763 270.37C875.889 260.679 879.879 249.684 880.731 237.478L876.741 237.2ZM865.541 268L862.306 265.647C856.332 273.862 848.34 280.382 838.224 285.187L839.941 288.8L841.657 292.413C852.874 287.085 861.949 279.738 868.775 270.353L865.541 268ZM839.941 288.8L838.224 285.187C828.149 289.973 816.877 292.4 804.341 292.4V296.4V300.4C817.937 300.4 830.399 297.761 841.657 292.413L839.941 288.8ZM816.741 241.2V245.2C830.77 245.2 842.41 240.574 851.259 231.136L848.341 228.4L845.422 225.664C838.271 233.292 828.845 237.2 816.741 237.2V241.2ZM848.341 228.4L851.3 231.091C860.052 221.464 864.341 209.399 864.341 195.2H860.341H856.341C856.341 207.668 852.629 217.736 845.381 225.709L848.341 228.4ZM860.341 195.2H864.341C864.341 185.572 862.354 176.903 858.262 169.304L854.741 171.2L851.219 173.096C854.594 179.364 856.341 186.694 856.341 195.2H860.341ZM854.741 171.2L858.318 169.411C854.499 161.772 848.872 155.841 841.495 151.71L839.541 155.2L837.586 158.69C843.543 162.026 848.049 166.761 851.163 172.989L854.741 171.2ZM839.541 155.2L841.661 151.808C834.545 147.361 826.323 145.2 817.141 145.2V149.2V153.2C825.025 153.2 831.736 155.039 837.421 158.592L839.541 155.2ZM817.141 149.2V145.2C807.955 145.2 799.631 147.361 792.283 151.77L794.341 155.2L796.398 158.63C802.384 155.039 809.259 153.2 817.141 153.2V149.2ZM794.341 155.2L792.325 151.745C785.275 155.857 779.595 161.714 775.276 169.201L778.741 171.2L782.205 173.199C785.886 166.819 790.606 162.01 796.356 158.655L794.341 155.2ZM778.741 171.2L775.219 169.304C771.127 176.903 769.141 185.572 769.141 195.2H773.141H777.141C777.141 186.694 778.888 179.364 782.262 173.096L778.741 171.2ZM773.141 195.2H769.141C769.141 204.583 771.136 213.114 775.219 220.696L778.741 218.8L782.262 216.904C778.878 210.619 777.141 203.417 777.141 195.2H773.141ZM778.741 218.8L775.219 220.696C779.289 228.255 784.991 234.255 792.283 238.63L794.341 235.2L796.398 231.77C790.357 228.145 785.659 223.212 782.262 216.904L778.741 218.8ZM794.341 235.2L792.283 238.63C799.611 243.027 807.797 245.2 816.741 245.2V241.2V237.2C809.151 237.2 802.404 235.373 796.398 231.77L794.341 235.2ZM857.941 292.4H861.941V240H857.941H853.941V292.4H857.941ZM857.941 240L861.867 240.765L871.067 193.565L867.141 192.8L863.214 192.035L854.014 239.235L857.941 240ZM867.141 192.8L871.067 192.035L861.867 144.835L857.941 145.6L854.014 146.365L863.214 193.565L867.141 192.8ZM857.941 145.6H861.941V98H857.941H853.941V145.6H857.941ZM857.941 98V102H917.941V98V94H857.941V98ZM917.941 98H913.941V292.4H917.941H921.941V98H917.941ZM917.941 292.4V288.4H857.941V292.4V296.4H917.941V292.4ZM961.031 292.4H957.031V296.4H961.031V292.4ZM961.031 98V94H957.031V98H961.031ZM1022.23 98H1026.23V94H1022.23V98ZM1022.23 292.4V296.4H1026.23V292.4H1022.23ZM1085.43 292.4H1081.43V296.4H1085.43V292.4ZM1076.23 156L1073.47 158.893L1073.54 158.958L1073.61 159.018L1076.23 156ZM1037.83 151.6L1039.62 155.178L1039.7 155.139L1039.77 155.097L1037.83 151.6ZM1026.23 162L1022.87 159.827L1022.83 159.899L1022.78 159.972L1026.23 162ZM1022.23 178.8L1020.62 182.46L1026.23 184.934V178.8H1022.23ZM998.631 168.4H994.631V171.008L997.018 172.06L998.631 168.4ZM1008.63 128.8L1012.05 130.882L1012.06 130.864L1012.07 130.846L1008.63 128.8ZM1035.83 103.2L1037.65 106.761L1037.69 106.744L1037.72 106.727L1035.83 103.2ZM1111.03 103.2L1109.04 106.668L1109.06 106.678L1109.07 106.689L1111.03 103.2ZM1137.03 128.8L1133.58 130.821V130.821L1137.03 128.8ZM1146.63 292.4V296.4H1150.63V292.4H1146.63ZM1209.83 292.4H1205.83V296.4H1209.83V292.4ZM1200.63 156L1197.87 158.893L1197.94 158.958L1198.01 159.018L1200.63 156ZM1162.23 151.6L1164.02 155.178L1164.1 155.139L1164.17 155.097L1162.23 151.6ZM1150.63 162L1147.27 159.827L1147.23 159.899L1147.18 159.972L1150.63 162ZM1146.63 178.8L1146.09 182.763L1150.63 183.382V178.8H1146.63ZM1111.43 174L1107.43 173.871L1107.32 177.476L1110.89 177.963L1111.43 174ZM1123.03 131.6L1119.63 129.487L1119.63 129.497L1119.62 129.508L1123.03 131.6ZM1152.23 104L1154.11 107.529L1154.13 107.522L1154.14 107.515L1152.23 104ZM1233.03 103.6L1231.08 107.093L1231.13 107.12L1231.18 107.145L1233.03 103.6ZM1260.63 130.4L1257.15 132.376L1257.18 132.423L1257.21 132.47L1260.63 130.4ZM1271.03 292.4V296.4H1275.03V292.4H1271.03ZM961.031 292.4H965.031V98H961.031H957.031V292.4H961.031ZM961.031 98V102H1022.23V98V94H961.031V98ZM1022.23 98H1018.23V292.4H1022.23H1026.23V98H1022.23ZM1022.23 292.4V288.4H961.031V292.4V296.4H1022.23V292.4ZM1085.43 292.4H1089.43V178.8H1085.43H1081.43V292.4H1085.43ZM1085.43 178.8H1089.43C1089.43 168.046 1086.05 159.236 1078.86 152.982L1076.23 156L1073.61 159.018C1078.68 163.431 1081.43 169.821 1081.43 178.8H1085.43ZM1076.23 156L1078.99 153.107C1072.32 146.733 1063.96 143.6 1054.23 143.6V147.6V151.6C1062.1 151.6 1068.41 154.067 1073.47 158.893L1076.23 156ZM1054.23 147.6V143.6C1047.5 143.6 1041.35 145.069 1035.89 148.103L1037.83 151.6L1039.77 155.097C1043.91 152.797 1048.7 151.6 1054.23 151.6V147.6ZM1037.83 151.6L1036.04 148.022C1030.6 150.744 1026.19 154.698 1022.87 159.827L1026.23 162L1029.59 164.173C1032.14 160.236 1035.46 157.256 1039.62 155.178L1037.83 151.6ZM1026.23 162L1022.78 159.972C1019.67 165.264 1018.23 171.608 1018.23 178.8H1022.23H1026.23C1026.23 172.659 1027.46 167.803 1029.68 164.028L1026.23 162ZM1022.23 178.8L1023.84 175.14L1000.24 164.74L998.631 168.4L997.018 172.06L1020.62 182.46L1022.23 178.8ZM998.631 168.4H1002.63C1002.63 153.515 1005.83 141.069 1012.05 130.882L1008.63 128.8L1005.22 126.718C998.094 138.397 994.631 152.352 994.631 168.4H998.631ZM1008.63 128.8L1012.07 130.846C1018.35 120.285 1026.87 112.28 1037.65 106.761L1035.83 103.2L1034.01 99.639C1021.86 105.853 1012.24 114.915 1005.19 126.754L1008.63 128.8ZM1035.83 103.2L1037.72 106.727C1048.54 100.937 1060.82 98 1074.63 98V94V90C1059.64 90 1046.05 93.1968 1033.94 99.6729L1035.83 103.2ZM1074.63 94V98C1087.61 98 1099.04 100.919 1109.04 106.668L1111.03 103.2L1113.03 99.7324C1101.69 93.2144 1088.86 90 1074.63 90V94ZM1111.03 103.2L1109.07 106.689C1119.38 112.47 1127.53 120.494 1133.58 130.821L1137.03 128.8L1140.48 126.779C1133.73 115.239 1124.55 106.196 1112.99 99.7114L1111.03 103.2ZM1137.03 128.8L1133.58 130.821C1139.55 141.029 1142.63 153.368 1142.63 168H1146.63H1150.63C1150.63 152.232 1147.31 138.438 1140.48 126.779L1137.03 128.8ZM1146.63 168H1142.63V292.4H1146.63H1150.63V168H1146.63ZM1146.63 292.4V288.4H1085.43V292.4V296.4H1146.63V292.4ZM1209.83 292.4H1213.83V178.8H1209.83H1205.83V292.4H1209.83ZM1209.83 178.8H1213.83C1213.83 168.046 1210.45 159.236 1203.26 152.982L1200.63 156L1198.01 159.018C1203.08 163.431 1205.83 169.821 1205.83 178.8H1209.83ZM1200.63 156L1203.39 153.107C1196.72 146.733 1188.36 143.6 1178.63 143.6V147.6V151.6C1186.5 151.6 1192.81 154.067 1197.87 158.893L1200.63 156ZM1178.63 147.6V143.6C1171.9 143.6 1165.75 145.069 1160.29 148.103L1162.23 151.6L1164.17 155.097C1168.31 152.797 1173.1 151.6 1178.63 151.6V147.6ZM1162.23 151.6L1160.44 148.022C1155 150.744 1150.59 154.698 1147.27 159.827L1150.63 162L1153.99 164.173C1156.54 160.236 1159.86 157.256 1164.02 155.178L1162.23 151.6ZM1150.63 162L1147.18 159.972C1144.07 165.264 1142.63 171.608 1142.63 178.8H1146.63H1150.63C1150.63 172.659 1151.86 167.803 1154.08 164.028L1150.63 162ZM1146.63 178.8L1147.17 174.837L1111.97 170.037L1111.43 174L1110.89 177.963L1146.09 182.763L1146.63 178.8ZM1111.43 174L1115.43 174.129C1115.94 158.15 1119.67 144.724 1126.44 133.692L1123.03 131.6L1119.62 129.508C1111.99 141.942 1107.98 156.783 1107.43 173.871L1111.43 174ZM1123.03 131.6L1126.43 133.713C1133.54 122.286 1142.76 113.585 1154.11 107.529L1152.23 104L1150.35 100.471C1137.7 107.215 1127.46 116.914 1119.63 129.487L1123.03 131.6ZM1152.23 104L1154.14 107.515C1165.77 101.194 1178.84 98 1193.43 98V94V90C1177.62 90 1163.23 93.4725 1150.32 100.486L1152.23 104ZM1193.43 94V98C1207.78 98 1220.29 101.069 1231.08 107.093L1233.03 103.6L1234.98 100.107C1222.84 93.3312 1208.95 90 1193.43 90V94ZM1233.03 103.6L1231.18 107.145C1242.22 112.915 1250.86 121.297 1257.15 132.376L1260.63 130.4L1264.11 128.424C1257.07 116.036 1247.31 106.552 1234.88 100.055L1233.03 103.6ZM1260.63 130.4L1257.21 132.47C1263.69 143.191 1267.03 156.307 1267.03 172H1271.03H1275.03C1275.03 155.16 1271.44 140.543 1264.05 128.33L1260.63 130.4ZM1271.03 172H1267.03V292.4H1271.03H1275.03V172H1271.03ZM1271.03 292.4V288.4H1209.83V292.4V296.4H1271.03V292.4Z" fill="#7B7979" mask="url(#path-1-outside-1_4004_2)"/>
<defs>
<linearGradient id="paint0_linear_4004_2" x1="-81.4751" y1="143.9" x2="1352.52" y2="143.9" gradientUnits="userSpaceOnUse">
<stop stop-color="#7B7979"/>
<stop offset="1" stop-color="#E1DDDD"/>
</linearGradient>
</defs>
</svg>
